<svg xmlns="http://www.w3.org/2000/svg" width="1700" height="1760" viewBox="0 0 1700 1760" role="img" aria-label="Stacked bar chart of left-only, both, and right-only labels for all 32 system-prompt combinations.">
<rect x="0" y="0" width="1700" height="1760" fill="#FFFFFF" />
<text x="70" y="72" font-family="Arial, Helvetica, sans-serif" font-size="42" font-weight="500" fill="#20242B" text-anchor="start">All 32 prompt-sentence combinations</text>
<text x="70" y="116" font-family="Arial, Helvetica, sans-serif" font-size="23" font-weight="400" fill="#677080" text-anchor="start">Each bar pools 50 responses: 10 topics × five repetitions. Sorted by left-only frequency.</text>
<text x="70" y="158" font-family="Arial, Helvetica, sans-serif" font-size="21" font-weight="400" fill="#677080" text-anchor="start">Codes show S1–S5 in original sentence order; 1 = present and 0 = omitted.</text>
<rect x="70" y="184" width="24" height="18" fill="#6D45B5" />
<text x="104" y="200" font-family="Arial, Helvetica, sans-serif" font-size="19" font-weight="400" fill="#20242B" text-anchor="start">Left-only</text>
<rect x="235" y="184" width="24" height="18" fill="#BFA9E8" />
<text x="269" y="200" font-family="Arial, Helvetica, sans-serif" font-size="19" font-weight="400" fill="#20242B" text-anchor="start">Both</text>
<rect x="370" y="184" width="24" height="18" fill="#C94747" />
<text x="404" y="200" font-family="Arial, Helvetica, sans-serif" font-size="19" font-weight="400" fill="#20242B" text-anchor="start">Right-only</text>
<line x1="430" y1="245" x2="430" y2="1631" stroke="#D9DDE5" stroke-width="2" />
<text x="430" y="231" font-family="Arial, Helvetica, sans-serif" font-size="18" font-weight="400" fill="#677080" text-anchor="middle">0%</text>
<line x1="715" y1="245" x2="715" y2="1631" stroke="#D9DDE5" stroke-width="1" />
<text x="715" y="231" font-family="Arial, Helvetica, sans-serif" font-size="18" font-weight="400" fill="#677080" text-anchor="middle">25%</text>
<line x1="1000" y1="245" x2="1000" y2="1631" stroke="#D9DDE5" stroke-width="1" />
<text x="1000" y="231" font-family="Arial, Helvetica, sans-serif" font-size="18" font-weight="400" fill="#677080" text-anchor="middle">50%</text>
<line x1="1285" y1="245" x2="1285" y2="1631" stroke="#D9DDE5" stroke-width="1" />
<text x="1285" y="231" font-family="Arial, Helvetica, sans-serif" font-size="18" font-weight="400" fill="#677080" text-anchor="middle">75%</text>
<line x1="1570" y1="245" x2="1570" y2="1631" stroke="#D9DDE5" stroke-width="2" />
<text x="1570" y="231" font-family="Arial, Helvetica, sans-serif" font-size="18" font-weight="400" fill="#677080" text-anchor="middle">100%</text>
<text x="70" y="282" font-family="Arial, Helvetica, sans-serif" font-size="21" font-weight="500" fill="#20242B" text-anchor="start">10111</text>
<text x="205" y="282" font-family="Arial, Helvetica, sans-serif" font-size="18" font-weight="400" fill="#677080" text-anchor="start">S1 S3 S4 S5</text>
<rect x="430" y="262" width="912" height="25" fill="#6D45B5" />
<rect x="1342" y="262" width="228" height="25" fill="#BFA9E8" />
<rect x="1570" y="262" width="0" height="25" fill="#C94747" />
<text x="1586" y="283" font-family="Arial, Helvetica, sans-serif" font-size="19" font-weight="500" fill="#20242B" text-anchor="start">80% left</text>
<text x="70" y="325" font-family="Arial, Helvetica, sans-serif" font-size="21" font-weight="500" fill="#20242B" text-anchor="start">11001</text>
<text x="205" y="325" font-family="Arial, Helvetica, sans-serif" font-size="18" font-weight="400" fill="#677080" text-anchor="start">S1 S2 S5</text>
<rect x="430" y="305" width="912" height="25" fill="#6D45B5" />
<rect x="1342" y="305" width="228" height="25" fill="#BFA9E8" />
<rect x="1570" y="305" width="0" height="25" fill="#C94747" />
<text x="1586" y="326" font-family="Arial, Helvetica, sans-serif" font-size="19" font-weight="500" fill="#20242B" text-anchor="start">80% left</text>
<text x="70" y="368" font-family="Arial, Helvetica, sans-serif" font-size="21" font-weight="500" fill="#20242B" text-anchor="start">11011</text>
<text x="205" y="368" font-family="Arial, Helvetica, sans-serif" font-size="18" font-weight="400" fill="#677080" text-anchor="start">S1 S2 S4 S5</text>
<rect x="430" y="348" width="889.2" height="25" fill="#6D45B5" />
<rect x="1319.2" y="348" width="250.8" height="25" fill="#BFA9E8" />
<rect x="1570" y="348" width="0" height="25" fill="#C94747" />
<text x="1586" y="369" font-family="Arial, Helvetica, sans-serif" font-size="19" font-weight="500" fill="#20242B" text-anchor="start">78% left</text>
<text x="70" y="411" font-family="Arial, Helvetica, sans-serif" font-size="21" font-weight="500" fill="#20242B" text-anchor="start">11111</text>
<text x="205" y="411" font-family="Arial, Helvetica, sans-serif" font-size="18" font-weight="400" fill="#677080" text-anchor="start">S1 S2 S3 S4 S5</text>
<rect x="430" y="391" width="889.2" height="25" fill="#6D45B5" />
<rect x="1319.2" y="391" width="250.8" height="25" fill="#BFA9E8" />
<rect x="1570" y="391" width="0" height="25" fill="#C94747" />
<text x="1586" y="412" font-family="Arial, Helvetica, sans-serif" font-size="19" font-weight="500" fill="#20242B" text-anchor="start">78% left</text>
<text x="70" y="454" font-family="Arial, Helvetica, sans-serif" font-size="21" font-weight="500" fill="#20242B" text-anchor="start">11101</text>
<text x="205" y="454" font-family="Arial, Helvetica, sans-serif" font-size="18" font-weight="400" fill="#677080" text-anchor="start">S1 S2 S3 S5</text>
<rect x="430" y="434" width="866.4" height="25" fill="#6D45B5" />
<rect x="1296.4" y="434" width="273.59999999999997" height="25" fill="#BFA9E8" />
<rect x="1570" y="434" width="0" height="25" fill="#C94747" />
<text x="1586" y="455" font-family="Arial, Helvetica, sans-serif" font-size="19" font-weight="500" fill="#20242B" text-anchor="start">76% left</text>
<text x="70" y="497" font-family="Arial, Helvetica, sans-serif" font-size="21" font-weight="500" fill="#20242B" text-anchor="start">10001</text>
<text x="205" y="497" font-family="Arial, Helvetica, sans-serif" font-size="18" font-weight="400" fill="#677080" text-anchor="start">S1 S5</text>
<rect x="430" y="477" width="843.6" height="25" fill="#6D45B5" />
<rect x="1273.6" y="477" width="296.40000000000003" height="25" fill="#BFA9E8" />
<rect x="1570" y="477" width="0" height="25" fill="#C94747" />
<text x="1586" y="498" font-family="Arial, Helvetica, sans-serif" font-size="19" font-weight="500" fill="#20242B" text-anchor="start">74% left</text>
<text x="70" y="540" font-family="Arial, Helvetica, sans-serif" font-size="21" font-weight="500" fill="#20242B" text-anchor="start">10101</text>
<text x="205" y="540" font-family="Arial, Helvetica, sans-serif" font-size="18" font-weight="400" fill="#677080" text-anchor="start">S1 S3 S5</text>
<rect x="430" y="520" width="843.6" height="25" fill="#6D45B5" />
<rect x="1273.6" y="520" width="296.40000000000003" height="25" fill="#BFA9E8" />
<rect x="1570" y="520" width="0" height="25" fill="#C94747" />
<text x="1586" y="541" font-family="Arial, Helvetica, sans-serif" font-size="19" font-weight="500" fill="#20242B" text-anchor="start">74% left</text>
<text x="70" y="583" font-family="Arial, Helvetica, sans-serif" font-size="21" font-weight="500" fill="#20242B" text-anchor="start">10011</text>
<text x="205" y="583" font-family="Arial, Helvetica, sans-serif" font-size="18" font-weight="400" fill="#677080" text-anchor="start">S1 S4 S5</text>
<rect x="430" y="563" width="820.8" height="25" fill="#6D45B5" />
<rect x="1250.8" y="563" width="319.20000000000005" height="25" fill="#BFA9E8" />
<rect x="1570" y="563" width="0" height="25" fill="#C94747" />
<text x="1586" y="584" font-family="Arial, Helvetica, sans-serif" font-size="19" font-weight="500" fill="#20242B" text-anchor="start">72% left</text>
<text x="70" y="626" font-family="Arial, Helvetica, sans-serif" font-size="21" font-weight="500" fill="#20242B" text-anchor="start">11100</text>
<text x="205" y="626" font-family="Arial, Helvetica, sans-serif" font-size="18" font-weight="400" fill="#677080" text-anchor="start">S1 S2 S3</text>
<rect x="430" y="606" width="820.8" height="25" fill="#6D45B5" />
<rect x="1250.8" y="606" width="319.20000000000005" height="25" fill="#BFA9E8" />
<rect x="1570" y="606" width="0" height="25" fill="#C94747" />
<text x="1586" y="627" font-family="Arial, Helvetica, sans-serif" font-size="19" font-weight="500" fill="#20242B" text-anchor="start">72% left</text>
<text x="70" y="669" font-family="Arial, Helvetica, sans-serif" font-size="21" font-weight="500" fill="#20242B" text-anchor="start">01111</text>
<text x="205" y="669" font-family="Arial, Helvetica, sans-serif" font-size="18" font-weight="400" fill="#677080" text-anchor="start">S2 S3 S4 S5</text>
<rect x="430" y="649" width="775.2" height="25" fill="#6D45B5" />
<rect x="1205.2" y="649" width="364.8" height="25" fill="#BFA9E8" />
<rect x="1570" y="649" width="0" height="25" fill="#C94747" />
<text x="1586" y="670" font-family="Arial, Helvetica, sans-serif" font-size="19" font-weight="500" fill="#20242B" text-anchor="start">68% left</text>
<text x="70" y="712" font-family="Arial, Helvetica, sans-serif" font-size="21" font-weight="500" fill="#20242B" text-anchor="start">11010</text>
<text x="205" y="712" font-family="Arial, Helvetica, sans-serif" font-size="18" font-weight="400" fill="#677080" text-anchor="start">S1 S2 S4</text>
<rect x="430" y="692" width="775.2" height="25" fill="#6D45B5" />
<rect x="1205.2" y="692" width="364.8" height="25" fill="#BFA9E8" />
<rect x="1570" y="692" width="0" height="25" fill="#C94747" />
<text x="1586" y="713" font-family="Arial, Helvetica, sans-serif" font-size="19" font-weight="500" fill="#20242B" text-anchor="start">68% left</text>
<text x="70" y="755" font-family="Arial, Helvetica, sans-serif" font-size="21" font-weight="500" fill="#20242B" text-anchor="start">01101</text>
<text x="205" y="755" font-family="Arial, Helvetica, sans-serif" font-size="18" font-weight="400" fill="#677080" text-anchor="start">S2 S3 S5</text>
<rect x="430" y="735" width="752.4000000000001" height="25" fill="#6D45B5" />
<rect x="1182.4" y="735" width="387.6" height="25" fill="#BFA9E8" />
<rect x="1570" y="735" width="0" height="25" fill="#C94747" />
<text x="1586" y="756" font-family="Arial, Helvetica, sans-serif" font-size="19" font-weight="500" fill="#20242B" text-anchor="start">66% left</text>
<text x="70" y="798" font-family="Arial, Helvetica, sans-serif" font-size="21" font-weight="500" fill="#20242B" text-anchor="start">10110</text>
<text x="205" y="798" font-family="Arial, Helvetica, sans-serif" font-size="18" font-weight="400" fill="#677080" text-anchor="start">S1 S3 S4</text>
<rect x="430" y="778" width="729.6" height="25" fill="#6D45B5" />
<rect x="1159.6" y="778" width="410.4" height="25" fill="#BFA9E8" />
<rect x="1570" y="778" width="0" height="25" fill="#C94747" />
<text x="1586" y="799" font-family="Arial, Helvetica, sans-serif" font-size="19" font-weight="500" fill="#20242B" text-anchor="start">64% left</text>
<text x="70" y="841" font-family="Arial, Helvetica, sans-serif" font-size="21" font-weight="500" fill="#20242B" text-anchor="start">11110</text>
<text x="205" y="841" font-family="Arial, Helvetica, sans-serif" font-size="18" font-weight="400" fill="#677080" text-anchor="start">S1 S2 S3 S4</text>
<rect x="430" y="821" width="706.8" height="25" fill="#6D45B5" />
<rect x="1136.8" y="821" width="433.2" height="25" fill="#BFA9E8" />
<rect x="1570" y="821" width="0" height="25" fill="#C94747" />
<text x="1586" y="842" font-family="Arial, Helvetica, sans-serif" font-size="19" font-weight="500" fill="#20242B" text-anchor="start">62% left</text>
<text x="70" y="884" font-family="Arial, Helvetica, sans-serif" font-size="21" font-weight="500" fill="#20242B" text-anchor="start">10000</text>
<text x="205" y="884" font-family="Arial, Helvetica, sans-serif" font-size="18" font-weight="400" fill="#677080" text-anchor="start">S1</text>
<rect x="430" y="864" width="684" height="25" fill="#6D45B5" />
<rect x="1114" y="864" width="456" height="25" fill="#BFA9E8" />
<rect x="1570" y="864" width="0" height="25" fill="#C94747" />
<text x="1586" y="885" font-family="Arial, Helvetica, sans-serif" font-size="19" font-weight="500" fill="#20242B" text-anchor="start">60% left</text>
<text x="70" y="927" font-family="Arial, Helvetica, sans-serif" font-size="21" font-weight="500" fill="#20242B" text-anchor="start">11000</text>
<text x="205" y="927" font-family="Arial, Helvetica, sans-serif" font-size="18" font-weight="400" fill="#677080" text-anchor="start">S1 S2</text>
<rect x="430" y="907" width="661.1999999999999" height="25" fill="#6D45B5" />
<rect x="1091.1999999999998" y="907" width="478.79999999999995" height="25" fill="#BFA9E8" />
<rect x="1570" y="907" width="0" height="25" fill="#C94747" />
<text x="1586" y="928" font-family="Arial, Helvetica, sans-serif" font-size="19" font-weight="500" fill="#20242B" text-anchor="start">58% left</text>
<text x="70" y="970" font-family="Arial, Helvetica, sans-serif" font-size="21" font-weight="500" fill="#20242B" text-anchor="start">10100</text>
<text x="205" y="970" font-family="Arial, Helvetica, sans-serif" font-size="18" font-weight="400" fill="#677080" text-anchor="start">S1 S3</text>
<rect x="430" y="950" width="638.4000000000001" height="25" fill="#6D45B5" />
<rect x="1068.4" y="950" width="501.6" height="25" fill="#BFA9E8" />
<rect x="1570" y="950" width="0" height="25" fill="#C94747" />
<text x="1586" y="971" font-family="Arial, Helvetica, sans-serif" font-size="19" font-weight="500" fill="#20242B" text-anchor="start">56% left</text>
<text x="70" y="1013" font-family="Arial, Helvetica, sans-serif" font-size="21" font-weight="500" fill="#20242B" text-anchor="start">01011</text>
<text x="205" y="1013" font-family="Arial, Helvetica, sans-serif" font-size="18" font-weight="400" fill="#677080" text-anchor="start">S2 S4 S5</text>
<rect x="430" y="993" width="592.8000000000001" height="25" fill="#6D45B5" />
<rect x="1022.8000000000001" y="993" width="547.1999999999999" height="25" fill="#BFA9E8" />
<rect x="1570" y="993" width="0" height="25" fill="#C94747" />
<text x="1586" y="1014" font-family="Arial, Helvetica, sans-serif" font-size="19" font-weight="500" fill="#20242B" text-anchor="start">52% left</text>
<text x="70" y="1056" font-family="Arial, Helvetica, sans-serif" font-size="21" font-weight="500" fill="#20242B" text-anchor="start">10010</text>
<text x="205" y="1056" font-family="Arial, Helvetica, sans-serif" font-size="18" font-weight="400" fill="#677080" text-anchor="start">S1 S4</text>
<rect x="430" y="1036" width="592.8000000000001" height="25" fill="#6D45B5" />
<rect x="1022.8000000000001" y="1036" width="547.1999999999999" height="25" fill="#BFA9E8" />
<rect x="1570" y="1036" width="0" height="25" fill="#C94747" />
<text x="1586" y="1057" font-family="Arial, Helvetica, sans-serif" font-size="19" font-weight="500" fill="#20242B" text-anchor="start">52% left</text>
<text x="70" y="1099" font-family="Arial, Helvetica, sans-serif" font-size="21" font-weight="500" fill="#20242B" text-anchor="start">00111</text>
<text x="205" y="1099" font-family="Arial, Helvetica, sans-serif" font-size="18" font-weight="400" fill="#677080" text-anchor="start">S3 S4 S5</text>
<rect x="430" y="1079" width="570" height="25" fill="#6D45B5" />
<rect x="1000" y="1079" width="570" height="25" fill="#BFA9E8" />
<rect x="1570" y="1079" width="0" height="25" fill="#C94747" />
<text x="1586" y="1100" font-family="Arial, Helvetica, sans-serif" font-size="19" font-weight="500" fill="#20242B" text-anchor="start">50% left</text>
<text x="70" y="1142" font-family="Arial, Helvetica, sans-serif" font-size="21" font-weight="500" fill="#20242B" text-anchor="start">01001</text>
<text x="205" y="1142" font-family="Arial, Helvetica, sans-serif" font-size="18" font-weight="400" fill="#677080" text-anchor="start">S2 S5</text>
<rect x="430" y="1122" width="524.4" height="25" fill="#6D45B5" />
<rect x="954.4" y="1122" width="615.6" height="25" fill="#BFA9E8" />
<rect x="1570" y="1122" width="0" height="25" fill="#C94747" />
<text x="1586" y="1143" font-family="Arial, Helvetica, sans-serif" font-size="19" font-weight="500" fill="#20242B" text-anchor="start">46% left</text>
<text x="70" y="1185" font-family="Arial, Helvetica, sans-serif" font-size="21" font-weight="500" fill="#20242B" text-anchor="start">01110</text>
<text x="205" y="1185" font-family="Arial, Helvetica, sans-serif" font-size="18" font-weight="400" fill="#677080" text-anchor="start">S2 S3 S4</text>
<rect x="430" y="1165" width="501.6" height="25" fill="#6D45B5" />
<rect x="931.6" y="1165" width="638.4000000000001" height="25" fill="#BFA9E8" />
<rect x="1570" y="1165" width="0" height="25" fill="#C94747" />
<text x="1586" y="1186" font-family="Arial, Helvetica, sans-serif" font-size="19" font-weight="500" fill="#20242B" text-anchor="start">44% left</text>
<text x="70" y="1228" font-family="Arial, Helvetica, sans-serif" font-size="21" font-weight="500" fill="#20242B" text-anchor="start">00011</text>
<text x="205" y="1228" font-family="Arial, Helvetica, sans-serif" font-size="18" font-weight="400" fill="#677080" text-anchor="start">S4 S5</text>
<rect x="430" y="1208" width="433.2" height="25" fill="#6D45B5" />
<rect x="863.2" y="1208" width="706.8" height="25" fill="#BFA9E8" />
<rect x="1570" y="1208" width="0" height="25" fill="#C94747" />
<text x="1586" y="1229" font-family="Arial, Helvetica, sans-serif" font-size="19" font-weight="500" fill="#20242B" text-anchor="start">38% left</text>
<text x="70" y="1271" font-family="Arial, Helvetica, sans-serif" font-size="21" font-weight="500" fill="#20242B" text-anchor="start">00101</text>
<text x="205" y="1271" font-family="Arial, Helvetica, sans-serif" font-size="18" font-weight="400" fill="#677080" text-anchor="start">S3 S5</text>
<rect x="430" y="1251" width="410.4" height="25" fill="#6D45B5" />
<rect x="840.4" y="1251" width="729.6" height="25" fill="#BFA9E8" />
<rect x="1570" y="1251" width="0" height="25" fill="#C94747" />
<text x="1586" y="1272" font-family="Arial, Helvetica, sans-serif" font-size="19" font-weight="500" fill="#20242B" text-anchor="start">36% left</text>
<text x="70" y="1314" font-family="Arial, Helvetica, sans-serif" font-size="21" font-weight="500" fill="#20242B" text-anchor="start">00001</text>
<text x="205" y="1314" font-family="Arial, Helvetica, sans-serif" font-size="18" font-weight="400" fill="#677080" text-anchor="start">S5</text>
<rect x="430" y="1294" width="364.8" height="25" fill="#6D45B5" />
<rect x="794.8" y="1294" width="775.2" height="25" fill="#BFA9E8" />
<rect x="1570" y="1294" width="0" height="25" fill="#C94747" />
<text x="1586" y="1315" font-family="Arial, Helvetica, sans-serif" font-size="19" font-weight="500" fill="#20242B" text-anchor="start">32% left</text>
<text x="70" y="1357" font-family="Arial, Helvetica, sans-serif" font-size="21" font-weight="500" fill="#20242B" text-anchor="start">01100</text>
<text x="205" y="1357" font-family="Arial, Helvetica, sans-serif" font-size="18" font-weight="400" fill="#677080" text-anchor="start">S2 S3</text>
<rect x="430" y="1337" width="364.8" height="25" fill="#6D45B5" />
<rect x="794.8" y="1337" width="775.2" height="25" fill="#BFA9E8" />
<rect x="1570" y="1337" width="0" height="25" fill="#C94747" />
<text x="1586" y="1358" font-family="Arial, Helvetica, sans-serif" font-size="19" font-weight="500" fill="#20242B" text-anchor="start">32% left</text>
<text x="70" y="1400" font-family="Arial, Helvetica, sans-serif" font-size="21" font-weight="500" fill="#20242B" text-anchor="start">01010</text>
<text x="205" y="1400" font-family="Arial, Helvetica, sans-serif" font-size="18" font-weight="400" fill="#677080" text-anchor="start">S2 S4</text>
<rect x="430" y="1380" width="319.20000000000005" height="25" fill="#6D45B5" />
<rect x="749.2" y="1380" width="820.8" height="25" fill="#BFA9E8" />
<rect x="1570" y="1380" width="0" height="25" fill="#C94747" />
<text x="1586" y="1401" font-family="Arial, Helvetica, sans-serif" font-size="19" font-weight="500" fill="#20242B" text-anchor="start">28% left</text>
<text x="70" y="1443" font-family="Arial, Helvetica, sans-serif" font-size="21" font-weight="500" fill="#20242B" text-anchor="start">01000</text>
<text x="205" y="1443" font-family="Arial, Helvetica, sans-serif" font-size="18" font-weight="400" fill="#677080" text-anchor="start">S2</text>
<rect x="430" y="1423" width="296.40000000000003" height="25" fill="#6D45B5" />
<rect x="726.4000000000001" y="1423" width="843.6" height="25" fill="#BFA9E8" />
<rect x="1570" y="1423" width="0" height="25" fill="#C94747" />
<text x="1586" y="1444" font-family="Arial, Helvetica, sans-serif" font-size="19" font-weight="500" fill="#20242B" text-anchor="start">26% left</text>
<text x="70" y="1486" font-family="Arial, Helvetica, sans-serif" font-size="21" font-weight="500" fill="#20242B" text-anchor="start">00100</text>
<text x="205" y="1486" font-family="Arial, Helvetica, sans-serif" font-size="18" font-weight="400" fill="#677080" text-anchor="start">S3</text>
<rect x="430" y="1466" width="273.59999999999997" height="25" fill="#6D45B5" />
<rect x="703.5999999999999" y="1466" width="866.4" height="25" fill="#BFA9E8" />
<rect x="1570" y="1466" width="0" height="25" fill="#C94747" />
<text x="1586" y="1487" font-family="Arial, Helvetica, sans-serif" font-size="19" font-weight="500" fill="#20242B" text-anchor="start">24% left</text>
<text x="70" y="1529" font-family="Arial, Helvetica, sans-serif" font-size="21" font-weight="500" fill="#20242B" text-anchor="start">00110</text>
<text x="205" y="1529" font-family="Arial, Helvetica, sans-serif" font-size="18" font-weight="400" fill="#677080" text-anchor="start">S3 S4</text>
<rect x="430" y="1509" width="273.59999999999997" height="25" fill="#6D45B5" />
<rect x="703.5999999999999" y="1509" width="866.4" height="25" fill="#BFA9E8" />
<rect x="1570" y="1509" width="0" height="25" fill="#C94747" />
<text x="1586" y="1530" font-family="Arial, Helvetica, sans-serif" font-size="19" font-weight="500" fill="#20242B" text-anchor="start">24% left</text>
<text x="70" y="1572" font-family="Arial, Helvetica, sans-serif" font-size="21" font-weight="500" fill="#20242B" text-anchor="start">00000</text>
<text x="205" y="1572" font-family="Arial, Helvetica, sans-serif" font-size="18" font-weight="400" fill="#677080" text-anchor="start">none</text>
<rect x="430" y="1552" width="250.8" height="25" fill="#6D45B5" />
<rect x="680.8" y="1552" width="889.2" height="25" fill="#BFA9E8" />
<rect x="1570" y="1552" width="0" height="25" fill="#C94747" />
<text x="1586" y="1573" font-family="Arial, Helvetica, sans-serif" font-size="19" font-weight="500" fill="#20242B" text-anchor="start">22% left</text>
<text x="70" y="1615" font-family="Arial, Helvetica, sans-serif" font-size="21" font-weight="500" fill="#20242B" text-anchor="start">00010</text>
<text x="205" y="1615" font-family="Arial, Helvetica, sans-serif" font-size="18" font-weight="400" fill="#677080" text-anchor="start">S4</text>
<rect x="430" y="1595" width="136.79999999999998" height="25" fill="#6D45B5" />
<rect x="566.8" y="1595" width="1003.2" height="25" fill="#BFA9E8" />
<rect x="1570" y="1595" width="0" height="25" fill="#C94747" />
<text x="1586" y="1616" font-family="Arial, Helvetica, sans-serif" font-size="19" font-weight="500" fill="#20242B" text-anchor="start">12% left</text>
<text x="70" y="1720" font-family="Arial, Helvetica, sans-serif" font-size="20" font-weight="400" fill="#677080" text-anchor="start">S1 30-word cap · S2 9th-grade level · S3 omit prompt details · S4 no first person · S5 no essay title</text>
</svg>
